Coordinates
version=1
nRows=21
nColumns=22
inDegrees=yes

Units are S.I. units (second, meters, Newtons, ...)
If the header above contains a line with 'inDegrees', this indicates whether rotational values are in degrees (yes) or radians (no).

endheader
time	pelvis_tilt	pelvis_list	pelvis_rotation	pelvis_tx	pelvis_ty	pelvis_tz	hip_flexion_r	hip_adduction_r	hip_rotation_r	knee_angle_r	ankle_angle_r	subtalar_angle_r	hip_flexion_l	hip_adduction_l	hip_rotation_l	knee_angle_l	ankle_angle_l	subtalar_angle_l	lumbar_extension	lumbar_bending	lumbar_rotation
      3.43000000	      0.22624748	     -2.00932425	      2.52601808	     -0.20788502	      0.90754526	      0.08516095	     21.95401620	      3.59589441	     -7.91885633	    -16.14347667	      0.34735622	     -3.20385623	    -11.80607241	     -1.14833177	      2.52641504	    -30.43808872	      2.25033469	     -3.71826268	     -7.54711073	     -2.70355456	     -4.18470368
      3.44000000	      0.38023626	     -1.92129804	      2.43358926	     -0.21986016	      0.90678114	      0.08443841	     22.02850435	      3.51575872	     -7.75836020	    -15.21143079	      1.12636684	     -2.59172532	    -11.64425976	     -1.04069531	      1.49472284	    -30.15152935	      4.11270980	     -4.34967726	     -8.16079210	     -2.83054836	     -4.17927033
      3.45000000	      0.54164679	     -1.73440543	      2.26487365	     -0.23172934	      0.90613086	      0.08374652	     22.05198857	      3.35620816	     -7.51993583	    -14.24809724	      1.87034117	     -1.83265457	    -11.50536674	     -0.78999018	      0.58262370	    -29.81172122	      5.87837212	     -4.94046470	     -8.75436900	     -3.06808235	     -4.12960700
      3.46000000	      0.67860822	     -1.46500230	      2.01648653	     -0.24345244	      0.90553332	      0.08312425	     22.07111418	      3.13502310	     -7.21748212	    -13.28762451	      2.50165554	     -0.94573251	    -11.36022501	     -0.41308273	     -0.17969561	    -29.40375312	      7.53623309	     -5.42735489	     -9.27781540	     -3.40160484	     -4.02963980
      3.47000000	      0.77144777	     -1.13190686	      1.69482389	     -0.25498774	      0.90493710	      0.08258532	     22.13761071	      2.86592569	     -6.86394577	    -12.40531983	      2.96055285	      0.05481174	    -11.19348415	      0.06399311	     -0.78699654	    -28.91528229	      9.06788528	     -5.81173085	     -9.70131346	     -3.81343782	     -3.88342504
      3.48000000	      0.80830638	     -0.75677520	      1.29985946	     -0.26629670	      0.90429500	      0.08215793	     22.29303314	      2.57037466	     -6.48490521	    -11.67706424	      3.23345675	      1.09070769	    -10.98911756	      0.61471918	     -1.24112920	    -28.35329052	     10.48203534	     -6.09218498	    -10.00061650	     -4.27800834	     -3.68134751
      3.49000000	      0.78814099	     -0.36818192	      0.84427545	     -0.27735023	      0.90358769	      0.08182023	     22.56677686	      2.26996414	     -6.10559343	    -11.18055975	      3.31481529	      2.11401533	    -10.73728645	      1.20285117	     -1.55758152	    -27.73843601	     11.78865197	     -6.30871343	    -10.17064385	     -4.75654376	     -3.43686002
      3.50000000	      0.71871267	      0.00224137	      0.33574399	     -0.28812010	      0.90281676	      0.08158470	     22.96935720	      1.99687073	     -5.74233624	    -10.98119117	      3.24421325	      3.04768213	    -10.43398590	      1.78639059	     -1.77285377	    -27.10003112	     12.98931674	     -6.49513957	    -10.21888705	     -5.21090812	     -3.15016381
      3.51000000	      0.62802013	      0.33865259	     -0.22066639	     -0.29861070	      0.90201909	      0.08144058	     23.48154057	      1.76654423	     -5.39380550	    -11.12369486	      3.06424869	      3.80160836	    -10.08697520	      2.34093378	     -1.95147727	    -26.48834593	     14.09507496	     -6.67756853	    -10.18540461	     -5.61809069	     -2.81975764
      3.52000000	      0.55552657	      0.63015412	     -0.83819042	     -0.30881217	      0.90127245	      0.08141175	     24.05986249	      1.59647973	     -5.04836411	    -11.62649813	      2.81121083	      4.29264192	     -9.72851173	      2.84873556	     -2.19371750	    -25.92894156	     15.08966303	     -6.86412442	    -10.12158298	     -5.96890514	     -2.41661006
      3.53000000	      0.48537450	      0.85109915	     -1.45158468	     -0.31873717	      0.90059454	      0.08137590	     24.70109190	      1.48380172	     -4.75959563	    -12.47218893	      2.49170388	      4.63453561	     -9.32226614	      3.28078641	     -2.44932757	    -25.46263671	     16.01280330	     -7.14223035	    -10.02495973	     -6.21722962	     -2.00786003
      3.54000000	      0.46327480	      1.00909886	     -2.08281772	     -0.32838258	      0.90008874	      0.08138256	     25.32661311	      1.43391218	     -4.45662644	    -13.60509030	      2.14451303	      4.76515589	     -8.92326995	      3.64219717	     -2.81486271	    -25.08531513	     16.84025153	     -7.50099656	     -9.95797694	     -6.38226335	     -1.57765620
      3.55000000	      0.49385835	      1.10452602	     -2.71089016	     -0.33777375	      0.89980876	      0.08139172	     25.90258938	      1.44030653	     -4.11275148	    -14.96727024	      1.77872964	      4.72543612	     -8.53326641	      3.93251655	     -3.29226917	    -24.80357982	     17.56446574	     -7.95373665	     -9.94152954	     -6.46286719	     -1.13923183
      3.56000000	      0.58353885	      1.13798895	     -3.31698648	     -0.34692941	      0.89981053	      0.08138627	     26.38956571	      1.50065204	     -3.70271481	    -16.48804540	      1.40465391	      4.56532455	     -8.16445462	      4.14872793	     -3.87207199	    -24.60860500	     18.17537040	     -8.47473790	     -9.99541874	     -6.46311443	     -0.71563418
      3.57000000	      0.71471503	      1.11652278	     -3.87588437	     -0.35587617	      0.90011108	      0.08133494	     26.78467078	      1.60348104	     -3.22285453	    -18.11435167	      1.04069718	      4.33171958	     -7.80693137	      4.29743641	     -4.50028512	    -24.48073976	     18.68336113	     -9.06148940	    -10.11063632	     -6.39198959	     -0.32963246
      3.58000000	      0.90615914	      1.02005675	     -4.38722211	     -0.36460673	      0.90075538	      0.08125410	     27.03844406	      1.77538487	     -2.65098908	    -19.78561311	      0.73735601	      4.11879771	     -7.50226102	      4.35930279	     -5.13006127	    -24.39044601	     19.13397358	     -9.51962056	    -10.31157732	     -6.23396840	      0.04987372
      3.59000000	      1.06069709	      0.92724798	     -4.78802858	     -0.37324925	      0.90162563	      0.08102215	     27.28608610	      1.91309185	     -2.07521494	    -21.51894292	      0.43990025	      3.82437683	     -7.08733974	      4.39993640	     -5.71413931	    -24.41481754	     19.36942670	    -10.23276880	    -10.50578267	     -6.06423899	      0.31000856
      3.60000000	      1.25741561	      0.74789454	     -5.14429315	     -0.38165076	      0.90280812	      0.08079767	     27.38768632	      2.14370401	     -1.41039121	    -23.23540591	      0.29442654	      3.65099097	     -6.73775885	      4.33658264	     -6.24396048	    -24.42822064	     19.59921588	    -10.62224566	    -10.75819760	     -5.80006299	      0.56841334
      3.61000000	      1.40982835	      0.56672877	     -5.41001909	     -0.38994906	      0.90415265	      0.08048195	     27.47562080	      2.36393584	     -0.72420662	    -24.96341362	      0.21853822	      3.45721855	     -6.28144938	      4.24620950	     -6.65613635	    -24.55077942	     19.67542062	    -11.12309612	    -10.98134467	     -5.52771438	      0.77130093
      3.62000000	      1.54097044	      0.35050622	     -5.60504297	     -0.39801615	      0.90565841	      0.08012196	     27.50860511	      2.61047523	     -0.04551249	    -26.68785879	      0.30041597	      3.31958749	     -5.80633228	      4.09429030	     -6.97679870	    -24.68479500	     19.69799394	    -11.50553730	    -11.17656293	     -5.20691347	      0.88363806
      3.63000000	      1.62617328	      0.13883641	     -5.73847243	     -0.40597593	      0.90723912	      0.07972464	     27.52707861	      2.85296556	      0.65088969	    -28.40063124	      0.45333531	      3.19419841	     -5.23552177	      3.92616982	     -7.15376405	    -24.91186651	     19.63014812	    -11.88397178	    -11.32667371	     -4.89198918	      0.99597133
